# xmcd
#
# Track frame offsets:
#	150
#	18392
#	36572
#	55394
#	70764
#	89377
#	130015
#	153018
#	167080
#	181495
#	218824
#	224910
#	289563
#
# Disc length: 4455 seconds
#
# Revision: 2
# Processed by: cddbd v1.5.2PL0 Copyright (c) Steve Scherf et al.
# Submitted via: EZCDAudioConverter 2.1.7.1
#
DISCID=bf11650d
DTITLE=Caravan - The World Is Yours 1/4
DYEAR=2010
DGENRE=
TTITLE0=Place Of My Own
TTITLE1=Magic Man
TTITLE2=Love Song With Flute
TTITLE3=Grandma's Lawn
TTITLE4=Cecil Rons
TTITLE5=Where But For Caravan Would I?
TTITLE6=A Day In The Life Of Maurice Haylett
TTITLE7=If I Could Do It All Over Again, I'd Do It All Over You
TTITLE8=Clipping The Eighth [''Hello Hello'' Demo]
TTITLE9=And I Wish I Were Stoned - Don't Worry
TTITLE10=Asforteri
TTITLE11=Can't Be Long Now - Francoise - For Richard - Warlock
TTITLE12=With An Ear To The Ground You Can Make It - Martinian - Only Cox - Re
TTITLE12=prise
EXTD=
EXTT0=
EXTT1=
EXTT2=
EXTT3=
EXTT4=
EXTT5=
EXTT6=
EXTT7=
EXTT8=
EXTT9=
EXTT10=
EXTT11=
EXTT12=
PLAYORDER=
